<svg id="图层_1" data-name="图层 1" xmlns="http://www.w3.org/2000/svg" viewBox="0 0 13.96 13.47"><defs><style>.cls-1{fill:none;stroke:#afb3bc;stroke-miterlimit:10;}.cls-2{fill:#afb3bc;}</style></defs><title>laydate</title><path class="cls-1" d="M13.48,12.64a.83.83,0,0,1-.8.85H1.32a.83.83,0,0,1-.8-.85v-10a.83.83,0,0,1,.8-.85H12.68a.82.82,0,0,1,.8.85Z" transform="translate(-0.02 -0.52)"/><rect class="cls-2" x="4.32" width="1.08" height="3.09"/><rect class="cls-2" x="8.56" width="1.08" height="3.09"/><rect class="cls-2" x="0.5" y="3.62" width="13.3" height="0.95"/><rect class="cls-2" x="2.38" y="6.68" width="1.18" height="1.18"/><rect class="cls-2" x="2.38" y="9.21" width="1.18" height="1.18"/><rect class="cls-2" x="6.48" y="6.68" width="1.18" height="1.18"/><rect class="cls-2" x="6.48" y="9.21" width="1.18" height="1.18"/><rect class="cls-2" x="10.4" y="6.68" width="1.18" height="1.18"/><rect class="cls-2" x="10.4" y="9.21" width="1.18" height="1.18"/></svg>