<?xml version="1.0" standalone="no"?><!DOCTYPE svg PUBLIC "-//W3C//DTD SVG 1.1//EN" "http://www.w3.org/Graphics/SVG/1.1/DTD/svg11.dtd"><svg t="1530761963695" class="icon" style="" viewBox="0 0 1024 1024" version="1.1" xmlns="http://www.w3.org/2000/svg" p-id="3093" xmlns:xlink="http://www.w3.org/1999/xlink" width="16" height="16"><defs><style type="text/css"></style></defs><path d="M608.491977 511.465532L939.776217 180.206889c26.612827-26.614875 26.612827-69.920105 0-96.533956-12.907098-12.907098-30.05001-20.01491-48.269026-20.014911s-35.35988 7.107812-48.263906 20.014911L511.958021 414.931576 180.696306 83.672933c-12.906075-12.907098-30.047963-20.015934-48.265954-20.015935s-35.358856 7.107812-48.266978 20.014911c-12.907098 12.907098-20.015934 30.048987-20.015935 48.266978s7.108836 35.35988 20.015935 48.268002l331.268882 331.243285L84.165421 842.691411c-12.907098 12.906075-20.016958 30.048987-20.016958 48.269025s7.108836 35.361927 20.014911 48.269026c12.894812 12.89686 30.035676 19.999552 48.26493 19.999552 18.295807 0 35.445886-7.10986 48.27005-19.997504l331.271953-331.248404 331.269906 331.24738c12.89174 12.89686 30.03158 19.999552 48.266978 19.999552 18.260995 0 35.390596-7.10986 48.213736-19.997504 12.906075-12.908122 20.01491-30.051034 20.014911-48.271074s-7.107812-35.361927-20.014911-48.269026l-331.22895-331.226902z" p-id="3094" fill="#c4c9d3"></path></svg>